<?xml version="1.0" standalone="no"?>
<!DOCTYPE svg PUBLIC "-//W3C//DTD SVG 1.1//EN" "http://www.w3.org/Graphics/SVG/1.1/DTD/svg11.dtd" >
<svg xmlns="http://www.w3.org/2000/svg">
<metadata></metadata>
<defs>
<font id="windsor_handregular" horiz-adv-x="2048" >
<font-face units-per-em="2048" ascent="1849" descent="-199" />
<missing-glyph horiz-adv-x="512" />
<glyph horiz-adv-x="0" />
<glyph horiz-adv-x="682" />
<glyph unicode=" "  horiz-adv-x="512" />
<glyph unicode="&#x09;" horiz-adv-x="512" />
<glyph unicode="&#xa0;" horiz-adv-x="512" />
<glyph unicode="!" horiz-adv-x="133" d="M33 37q0 12 11.5 23.5t23.5 11.5q30 0 30 -35q0 -11 -12.5 -26t-19.5 -15q-13 0 -23 16.5t-10 24.5zM43 256l6 348l21 258v152q0 6 -3.5 20t-3.5 17t2.5 15t2.5 17v160q4 8 14 8q5 0 10 -5l6 -5v-104q0 -2 -1 -19t-1.5 -32t0.5 -33q6 -81 6 -92v-123q0 -3 -4.5 -22.5 t-5.5 -29.5q-9 -80 -12 -170q-1 -14 0.5 -47.5t1.5 -44.5v-53q0 -22 -2 -69l-2 -48q0 -4 -6 -10q1 -11 -0.5 -46.5t-1.5 -45.5q-19 0 -27 4z" />
<glyph unicode="." horiz-adv-x="133" d="M33 37q0 12 11.5 23.5t23.5 11.5q30 0 30 -35q0 -11 -12.5 -26t-19.5 -15q-13 0 -23 16.5t-10 24.5z" />
<glyph unicode="?" horiz-adv-x="411" d="M66 39q0 7 10 24t22 17q11 0 24 -14.5t13 -22.5q0 -18 -14.5 -30.5t-26.5 -12.5q-13 0 -20.5 13.5t-7.5 25.5zM80 1047q0 17 18.5 61t30.5 59q9 15 29 33t37 27q19 9 51.5 17.5t40.5 8.5q18 0 47 -22.5t35 -42.5q14 -52 14 -113q0 -7 -6.5 -43t-11.5 -51q-21 -67 -46 -98 q-10 -12 -40.5 -38.5t-42.5 -41.5q-24 -28 -46 -82q-1 -3 -1 -10.5t-1 -10.5q-3 -19 -14 -70.5t-14 -78.5q-2 -26 -8 -58t-7 -44q-3 -27 -16 -160q-2 -1 -6 -5t-7 -6t-7 -2q-6 0 -11.5 7.5t-5.5 13.5q0 7 14.5 117.5t22.5 160.5q2 12 8.5 52t13 70t15.5 57q18 44 39 71 q7 9 40.5 35t47.5 45q11 16 24.5 49t14.5 54q1 2 2.5 9t3 13l2.5 10q8 32 8 58q0 27 -9.5 70.5t-29.5 43.5q-5 0 -14.5 4.5t-13.5 4.5q-28 0 -54 -11q-37 -15 -80 -82q-31 -43 -38 -94h-27q0 2 -1 5t-1 8z" />
<glyph unicode="A" horiz-adv-x="573" d="M25 35q0 2 5 25.5t11.5 55t9.5 50.5q0 2 -0.5 7t-0.5 10.5t1 9.5q31 185 47 239q3 11 19.5 58t23.5 69q8 29 21.5 92.5t21.5 93.5q3 13 8.5 44.5t8.5 44.5q1 3 10.5 27t11.5 38q7 45 8 47q16 73 78 244h13q24 -22 32 -66q3 -15 9 -59.5t8 -58.5q5 -26 20.5 -93.5 t24.5 -113.5q4 -24 19 -99.5t24.5 -127t15.5 -99.5q5 -20 14 -41q2 -3 0.5 -16t-0.5 -17q11 -59 26 -152t25.5 -161t10.5 -72q0 -14 -8 -34q-5 0 -12 7t-7 11q-19 62 -34.5 199t-24.5 186q0 18 -10 31q-40 3 -101 12l-207 4q-15 0 -18 -10q-15 -47 -25 -111 q-31 -178 -49 -284q-1 0 -5 -2.5t-9 -2.5q-6 0 -11 4.5t-5 10.5zM141 471q0 -5 3 -7q1 -1 1 -3q15 -1 39.5 0t44 2.5t21.5 1.5q3 0 37.5 -2t82 -4.5t76.5 -3.5v24l-127 645q-3 -10 -27.5 -81.5t-31.5 -98.5q-8 -34 -19.5 -97.5t-17.5 -86.5q-4 -18 -19 -70t-20 -76 q-4 -20 -15 -54.5t-19.5 -60t-8.5 -28.5z" />
<glyph unicode="B" horiz-adv-x="364" d="M25 78v387l10 307q0 2 2 30.5t2 43.5q1 19 5 65t5 70q6 99 6 201q11 2 31 5.5t35 6t18 2.5q39 0 58 -12q14 -6 39 -39q1 -2 6.5 -7t7.5 -8q13 -19 14 -24q19 -50 29 -88q1 -3 -1 -10.5t-1 -10.5l5 -11q5 -10 5 -15v-105q0 -4 -6.5 -27.5t-7.5 -31.5q-11 -55 -49.5 -119.5 t-79.5 -95.5q6 -5 14 -7t10 -3q1 -1 5 -4t6 -5q31 0 74 -44.5t52 -84.5q5 -22 12 -67t7 -53q0 -101 -8 -136q-33 -148 -131 -180q-5 -2 -21.5 -10.5t-27.5 -11.5q-24 -4 -48 -4h-5h-5t-5 0.5t-5.5 1t-4.5 2t-5 3.5t-4 5t-4 7t-3 9q6 -1 13 -1.5t10.5 -1t8 -1t7.5 -0.5 q63 0 124 51t67 111q1 3 5.5 20t4.5 25q2 74 2 102q0 61 -24.5 127.5t-57.5 77.5q-3 1 -10 8.5t-10 10.5q-32 20 -66 20q-5 0 -20.5 -3t-30 -3t-25.5 6v-541q-8 -8 -12 -16q-18 12 -18 21q-4 32 -4 55zM59 578q62 14 111.5 70.5t72.5 117t23 106.5q0 24 -1 46.5t-7.5 72 t-18.5 84t-38 62.5t-62 28q-6 0 -29 -4.5t-30 -5.5q0 -12 1.5 -51.5t0.5 -54.5q-1 -42 -8 -108.5t-8 -92.5q-1 -27 -2.5 -84.5t-3 -105t-1.5 -80.5z" />
<glyph unicode="C" horiz-adv-x="448" d="M37 524q0 90 8 164q2 15 3 48t3 48q13 87 25 127q6 24 16 49.5t24.5 58t20.5 46.5q2 2 4.5 3.5t3.5 2.5q9 27 63 65t81 38h73q3 0 17 -7q26 -5 53 -35t27 -57q0 -8 -8 -16h-13l-6 12q-7 44 -41.5 63t-73.5 19q-53 0 -108.5 -52t-63.5 -104q-8 -8 -12 -16q-1 -5 -1 -16.5 t-1 -16.5q-9 -7 -16.5 -22.5t-10 -27.5t-7 -36.5t-5.5 -30.5t-6 -23.5t-6 -23.5q-2 -32 -7 -94t-8.5 -105t-3.5 -46q1 -31 5 -107q3 -53 3 -86q0 -15 -1 -27q0 -7 5.5 -27t6.5 -28q5 -38 37 -143q1 -2 7 -7t7 -8q15 -35 60 -63.5t81 -28.5q2 0 19 2t22 2q15 0 25 7 q2 2 15.5 12t21.5 14q4 -4 4 -12q0 -4 -13 -20t-24 -25q-46 -8 -78 -8q-109 0 -178 127q-5 9 -14.5 57.5t-16.5 69.5q-8 28 -11 52t-3 58.5v42.5q-4 66 -4 131z" />
<glyph unicode="D" horiz-adv-x="376" d="M22 102q0 14 0.5 27t0.5 14l14 613v454q2 1 6 2.5t7.5 3t6.5 1.5h21.5h27.5t28 -1.5t31.5 -4t28.5 -8t27.5 -13.5t20.5 -20t16 -27q1 -1 11 -10.5t12 -16.5q42 -92 53 -184q10 -112 10 -139q0 -3 -3 -43.5t-3 -44.5v-117q0 -90 -20 -196t-48 -177q-18 -47 -66.5 -110.5 t-88.5 -77.5l-18 -9t-25 -11.5t-15 -4.5q-8 0 -26 12q0 3 -2.5 13.5t-3.5 15.5q-2 11 -3 28q-1 11 -1 21q1 6 1 10zM51 365l4 -349q28 25 49 33q18 8 30.5 20t30 34.5t25.5 31.5q2 3 10.5 11.5t10.5 13.5q37 60 43 84q33 117 53 291l6 272q0 27 -20 139q0 23 -2 31 q-1 3 -7 29.5t-9.5 38t-12.5 36t-18 38.5t-23.5 31t-32.5 28q-21 12 -53 12q-39 0 -59 -10q-2 -99 -6 -232q-1 -53 -7 -266q-4 -122 -4 -182q0 -11 -3 -34.5t-3 -29.5q0 -9 1.5 -29t0.5 -28q-4 -8 -4 -14z" />
<glyph unicode="E" horiz-adv-x="335" d="M51 31q7 13 0 26l6 529q1 60 5.5 183t5.5 183v66q-2 14 0 58q1 19 1 36q0 22 -1 42q-2 34 -9 54l275 25l8 -8q-7 -11 -46.5 -22t-66.5 -11q-6 0 -14 8l-10 -10q-15 -2 -33 2l-8 -6q-4 4 -14 4q-60 0 -60 -12q2 -53 2 -160v-215q0 -10 -3 -35.5t-3 -28.5l2 -33 q2 -33 2 -55q0 -7 -1 -27t-1 -30q18 -2 60.5 4t56.5 6h63q4 0 4 -8q0 -11 -6.5 -17t-15.5 -6q-52 0 -111 -6q-4 -1 -19.5 -6.5t-19.5 -5.5q-5 0 -6 3q0 1 -2 1q-1 -9 -3 -43.5t-7 -54.5l4 -422q12 -4 29 -5.5t26.5 -1.5t34.5 1.5t29 1.5q6 0 21.5 1t25 1t23 -3t22.5 -9 q-8 -8 -8 -15q-35 -6 -67 -6h-23q-24 0 -52 1q-43 1 -59 1q-7 0 -20 7t-17 18z" />
<glyph unicode="F" horiz-adv-x="389" d="M31 162l14 162v79q0 2 3.5 69t7 146.5t3.5 110.5q1 33 1.5 140.5t2.5 164.5q1 14 -0.5 46t-1.5 44q0 31 -2 45q-4 8 7 25q143 0 223 2q36 6 45 6h20q2 -6 4 -8q-5 -15 -18 -18q-27 -8 -73 -12.5t-60 -4.5q-4 0 -13.5 2t-13.5 2q-47 0 -86 -8q-5 -3 -5.5 -17.5t1.5 -29 t0 -27.5l-14 -403q2 -8 1.5 -24.5t0.5 -28t4 -11.5q5 0 17 4t16 5q58 8 98 8q17 0 41 -8q2 -2 -1 -8.5t-7 -10.5q-18 -2 -62 -9t-67 -9q-25 0 -41 -2q0 -23 -3 -71t-3 -67q0 -46 -5 -131.5t-6 -121.5v-32q0 -29 1 -67q2 -66 1 -90q-4 0 -16 -6q-1 2 -5.5 9.5t-4.5 12.5 q0 20 -1 53.5t-2 60t-1 28.5z" />
<glyph unicode="G" horiz-adv-x="555" d="M23 557v150q0 3 4 22t4 27q2 21 14 80q14 72 23 90q1 3 12.5 20.5t15.5 28.5q22 59 93.5 121t123.5 86q12 5 31 13t23 9.5t14.5 4.5t18 3h22.5q37 0 88 -29t65 -71l-4 -25q-11 7 -28.5 33t-32.5 35q-20 14 -40 20.5t-32.5 7.5t-36.5 1q-3 0 -12.5 -4t-22.5 -9.5t-20 -7.5 q-67 -19 -141 -86q-15 -15 -43 -54.5t-45 -70.5q-19 -32 -25 -51q-8 -20 -12 -36.5t-5.5 -36t-2.5 -23.5q0 -3 -5.5 -17t-5.5 -22q-4 -48 -8 -72l4 -170q4 -149 48.5 -283.5t136.5 -187.5l10 -10q40 -18 51 -18q5 0 27.5 -3.5t27.5 -3.5q28 0 48.5 23t29 57t12 59.5 t3.5 43.5q0 2 -2.5 24t-5 47t-1.5 37q2 67 2 119t-2 88q-24 10 -94 10h-10q-10 -1 -34.5 -1.5t-59.5 -0.5l-2 6q-2 7 -2 13q24 5 63 5q20 0 43 -1q2 0 9 4t12 4q3 0 96 -6q7 -3 10 -10q1 -27 2 -77t2 -79l-4 -8v-20q0 -36 5 -87q7 -64 7 -71q0 -39 -10.5 -89t-17.5 -61 q-3 -3 -13 -16t-14 -17q-37 -28 -53 -28h-31q-2 0 -20 7t-25 7h-2q-32 0 -75 25q-46 26 -70 55q-45 51 -95 203q-6 18 -10 36.5t-6.5 30.5t-4.5 32t-3 27t-2.5 29.5t-1.5 26.5q-1 9 -3 31.5t-3.5 39.5t-1.5 21z" />
<glyph unicode="H" horiz-adv-x="411" d="M39 877q-1 9 1 58q1 29 1 51v24q0 13 -0.5 34.5t0.5 51.5t1 52.5t-1 37.5q-2 2 0.5 7.5t5.5 6.5h21q6 -25 6 -60.5t-6 -58.5q0 -8 4 -12v-119v-54v-110q2 -106 2 -139q6 -6 12 -6l213 21q7 0 25 -9q-1 -10 -10.5 -14.5t-25.5 -4.5l-16 -1q-87 -21 -110 -21h-82l-6 -6 q0 -12 3 -39.5t3 -42.5q2 -79 2 -140v-54v-39q0 -32 -1 -51.5t-2 -27.5l-1 -9v-109q0 -34 -6 -57q-1 -5 -15 -23q-12 12 -12 74v156l4 250zM319 1184q0 39 15 39q4 0 6 -1.5t4 -4.5l2 -3q0 -5 2 -19.5t2 -18.5v-95q0 -4 2 -25.5t2 -25.5v-436l15 -436q0 -1 -4 -32.5 t-3 -43.5q0 -4 3 -18.5t2 -20.5q-4 -9 -23 -43q-12 62 -12 117q0 29 0.5 77t1 84.5t0.5 38.5v103q0 236 -6 430v135v18q0 25 -2 59q-2 48 -4.5 84.5t-2.5 37.5z" />
<glyph unicode="I" horiz-adv-x="157" d="M29 23v129q0 4 5 93t5 93l20 573v254q10 15 21 15q7 0 10 -2t4.5 -9t3.5 -10l-30 -956v-140q0 -54 -13 -69h-12q0 1 -7 12.5t-7 16.5z" />
<glyph unicode="J" horiz-adv-x="329" d="M37 55v21q2 2 6 4t6 4q3 -1 21 -25q0 -3 22 -14.5t27 -11.5h18q12 0 33 16q30 22 39 78q5 31 8 80t5.5 114.5t4.5 98.5l15 198v87q0 4 3 41.5t3 41.5v99q0 2 3 32.5t3 45.5v41l-3 4q-3 3 -3 8q0 4 3 9.5t3 8.5q2 18 2 54q0 4 1 16t1 18v47q0 24 8 43h1q7 0 15 -9 q9 -10 9 -15v-105q0 -1 -5 -36.5t-5 -53.5v-166l-21 -335v-177q0 -17 -6 -55q-2 -14 -5 -45t-5.5 -50t-9 -46t-15.5 -49q-10 -26 -39.5 -45t-58.5 -19q-14 0 -30.5 2.5t-35 14t-18.5 30.5z" />
<glyph unicode="K" horiz-adv-x="464" d="M49 0v55l21 297v142q0 1 3 31.5t3 47.5q1 38 0 63t-2.5 35t-1.5 11q0 4 4 46t4 46v113v19q0 18 -0.5 44t-0.5 62v70t0.5 69.5t0.5 60.5q0 4 2 9t4.5 10.5t3.5 7.5q12 -4 16 -15t4 -37.5t1 -35.5q0 -2 -2.5 -4t-2.5 -4q9 -137 11 -207q0 -9 -1 -28.5t-3 -61t-4 -92.5 q0 -11 0.5 -34.5t0.5 -44t-1 -38.5q1 -1 1.5 -4.5t2.5 -5.5l303 633q14 -7 30 -7v-22q0 -4 -7 -6t-9 -6q-10 -20 -42.5 -84.5t-50 -100t-42 -88t-39.5 -92.5t-23 -70l-12 -12q-40 -85 -86 -188q6 -6 10 -6t8 2t9 2q24 0 46 -32t25 -34q3 -18 3 -33q1 -4 6 -12t6 -12 q13 -67 18 -201q2 -1 3.5 -6t2.5 -6q0 -5 -1.5 -20t-0.5 -23q1 -5 4.5 -14t5.5 -17t3 -14q2 -20 9 -59.5t9 -51.5q4 -21 28 -30t42 -7v-16q-20 -8 -33 -8q-17 0 -41 17t-27 30q-6 21 -9.5 46t-5 42t-4 51t-3.5 51q-1 9 -6.5 34.5t-5.5 29.5v92q0 10 -11 10q0 28 -21 97 t-52 69q-5 0 -22 -13.5t-21 -21.5q-5 -9 -5 -88q0 -24 -3 -74t-3 -75q0 -8 -4.5 -27t-5.5 -27q-2 -12 -2 -53q0 -21 -4 -71.5t-4 -61.5q0 -2 2.5 -12t1.5 -15q-6 -12 -10 -16h-23z" />
<glyph unicode="L" horiz-adv-x="335" d="M29 117l45 778q0 4 -4 54.5t-4 54.5v131q0 34 -11 71q4 13 19 13q7 0 22 -15q2 -7 2 -16t-1 -20t-1 -17t2 -34t2 -42q0 -7 2 -28t2 -31q3 -46 3 -81q0 -29 -2 -51q-5 -48 -5 -57v-112q0 -4 -3 -4q-3 -1 -3 -6v-87q0 -2 -4 -33.5t-8.5 -70t-5.5 -55.5q-2 -8 -2 -37v-105 q0 -3 -5.5 -21t-5.5 -28q-4 -82 -4 -127q0 -1 1.5 -21t2.5 -43.5t0 -37.5q10 -10 21 -10l199 24q15 0 24 -12q0 -1 -4.5 -5.5t-5.5 -6.5q-8 0 -30.5 -6t-33.5 -7q-8 -1 -28 -3t-27 -3q-61 -12 -127 -12q-6 0 -12 4.5t-6 9.5q-4 35 -4 105z" />
<glyph unicode="M" horiz-adv-x="577" d="M45 90l33 860v211q0 4 -2 16.5t-2 16.5q0 5 7 11.5t13 6.5t14 -5t9 -11q14 -39 35 -125q7 -30 28.5 -101t30.5 -110q18 -73 25 -102q2 -9 9 -49t16.5 -75.5t23.5 -62.5q4 -2 6 2q26 84 73.5 241.5t63.5 209.5q37 121 55 162q16 49 31 49q8 0 23 -10q8 -126 8 -191 q0 -3 -4.5 -22t-5.5 -27q6 -19 6 -162v-80l-15 -305v-135q0 -19 -4 -65q-5 -105 -12 -175q0 -4 2 -15.5t2 -16.5q0 -4 -1.5 -8t-3.5 -8.5t-3 -6.5h-23q-8 12 -8 25q0 4 7 93.5t7 94.5v103q0 3 2 31.5t4 67t3 60.5q4 104 8 316q0 4 2 51.5t2 103.5v127q-1 6 -3 27t-3 27 q-7 -8 -12 -22t-10.5 -35.5t-8.5 -30.5q-39 -108 -100 -312q-14 -45 -56 -200q-3 -21 -18 -50h-20q-27 71 -76.5 287t-91.5 336l-5 -10q-2 -22 -2 -44t2 -44q0 -7 -3.5 -25t-4.5 -24q-1 -13 2.5 -40t3.5 -40q0 -16 -12 -52q-1 -6 2.5 -16.5t3.5 -13.5v-144q-10 -10 -10 -20 q0 -12 3 -42t3 -44q-10 -155 -10 -162q0 -12 3 -38t3 -27v-297q-2 -1 -9.5 -8t-12.5 -7q-14 0 -19 19.5t-3 37t-1 23.5z" />
<glyph unicode="N" horiz-adv-x="464" d="M37 49q0 4 1 15t2.5 26.5t2.5 24.5q0 3 -1.5 32.5t-0.5 45.5q1 24 7.5 78t6.5 81q6 300 6 305v543q13 17 21 17q6 0 13 -7.5t9 -15.5q29 -119 64 -240q1 -3 0.5 -14t1.5 -16q12 -52 38.5 -149t33.5 -124q2 -7 5 -27t5 -28q11 -39 36.5 -114.5t37.5 -114.5q1 -4 3 -17.5 t3 -17.5q36 -106 39 -127q0 -5 6.5 -17t7.5 -14q4 4 4 12l-6 924q4 21 4 50q0 19 -2 42q-6 12 -6 15q0 6 7 11t13 5q15 0 17 -28q1 -10 1 -22q-1 -22 -3 -51q-4 -45 -4 -49v-56q0 -127 4 -128q2 -1 2 -27q0 -38 -2 -114.5t-2 -108.5q0 -7 3.5 -25t4.5 -26q1 -14 1 -33 q0 -36 -3 -88q0 -4 -2 -15.5t-2 -15.5q0 -3 1.5 -22.5t3.5 -45t3 -40.5q0 -13 0.5 -37t0 -59.5t-0.5 -60.5v-40q1 -17 4 -51.5t5.5 -62.5t2.5 -31q0 -14 -14 -19h-17q-4 14 -15 42.5t-15 41.5q-3 11 -8.5 38.5t-8.5 37.5q0 4 -2.5 11.5t-6.5 16.5t-5 13q-38 143 -76 260 q-9 26 -23 93.5t-20 91.5q-56 188 -67 237q-3 12 -13 62t-20 86.5t-23 64.5q-9 -78 -9 -166q0 -24 1 -49q1 -19 2 -49.5t2 -70t2 -60.5q1 -7 0 -17t-3 -23t-3 -20q0 -7 1 -28t0.5 -37t-3.5 -31q-5 -34 -8 -45q2 -2 6 -10q-1 -14 0.5 -48.5t1.5 -45.5q0 -1 -2 -7t-2 -10 q0 -6 1 -20.5t1 -20.5q0 -8 -5 -27.5t-5 -21.5v-121q0 -48 -4 -110q0 -4 -3.5 -12.5t-7.5 -8.5h-12q-14 23 -14 35zM385 162h6v8h-6v-8z" />
<glyph unicode="O" horiz-adv-x="483" d="M41 573q0 2 5.5 21.5t4.5 30.5q-1 20 -1 40q0 121 40 275q20 73 57 129q5 8 16 28t24 38t30 32q7 7 23 19q72 24 84 24q18 0 39.5 -15t25.5 -24q27 -51 35 -100q6 -29 10 -61q8 -45 8 -144v-231q0 -4 -6 -78t-6 -78v-88q0 -12 -19 -115.5t-28 -136.5q-1 -4 -6.5 -18 t-7.5 -21q-20 -59 -76 -88q-16 -10 -47 -21t-39 -11q-15 0 -28 4t-23.5 10t-20.5 17.5t-17 20.5t-14 25t-11 25.5t-9.5 27.5t-8 26.5t-7 26t-5.5 21.5t-0.5 21.5t-1.5 27.5q-11 61 -11 130q0 20 1 40q0 12 -3 40t-3 42q-1 31 -2 51t-1.5 27.5t-0.5 9.5zM80 461q0 -4 1 -6 t2.5 -2.5t2.5 -1.5q0 -3 1.5 -25t0.5 -31q-2 -6 -2 -26q0 -17 2 -45q2 -60 2 -74l6 -6q2 -14 4 -44t4 -42q3 -10 10.5 -31t21 -50t33 -50t38.5 -21q6 0 46.5 19t47.5 24q7 6 27 39q14 30 25 67t17.5 64t12 71.5t7.5 62t5.5 65t3.5 53.5q1 19 3 43.5t4 41.5t2 19v345 q0 17 -6 72t-25.5 121.5t-46.5 66.5q-8 0 -33.5 -7.5t-38.5 -15.5q-18 -10 -39 -31q-31 -34 -59 -92q-31 -71 -45 -125q-7 -31 -27 -170q-1 -7 0 -23.5t0 -21.5q-2 -12 -2 -33t2 -51q-1 -1 -2 -1q-2 0 -2 -5v-86q0 -2 1.5 -20t0.5 -25l-3 -3q-3 -4 -3 -9z" />
<glyph unicode="P" horiz-adv-x="323" d="M20 -14l17 839q0 23 -5 72t-5 74l-2 231q24 15 65 15q57 0 98 -15q29 -10 37 -28q68 -129 68 -248q0 -47 -4 -70q-9 -73 -45 -170q-25 -62 -113 -135q-15 -14 -70 -23q-6 -5 -7.5 -14t0 -24t1.5 -19q0 -16 1 -51t1 -37v-98q0 -3 -3 -17t-3 -22v-176q0 -3 1 -15t0.5 -21 t-3.5 -16q-1 -4 -8.5 -15.5t-7.5 -16.5h-13zM55 1028q0 -2 2 -27.5t4 -57.5t2 -52q0 -5 -2.5 -26.5t0.5 -22.5l-2 -285q6 2 21 4t18 4q118 70 152 258q8 58 8 99q0 67 -18.5 136.5t-53.5 108.5q-6 6 -25.5 10.5t-27.5 4.5h-63q-13 -4 -13 -35q0 -44 -0.5 -71.5t-1 -37 t-0.5 -10.5z" />
<glyph unicode="Q" horiz-adv-x="436" d="M23 614q0 45 1.5 57t14.5 91q2 8 2 33q4 91 12 158.5t34.5 143t70.5 109.5q5 3 18 16t21 17q4 1 53 18q12 11 16 13q20 8 39 8q5 0 6 -2.5t2 -3.5q10 2 29 -7t25 -20q19 -34 29 -87q7 -44 7 -81v-16l-20 -594q0 -19 -10 -121q-3 -29 -10 -77t-13 -83.5t-6 -38.5 q0 -8 32 -46.5t34 -41.5q21 -40 55.5 -84.5t69.5 -68.5q21 -15 75 -15q2 0 9.5 -0.5t11 0t10.5 2.5t16 6.5t21 12.5h12v-16q-41 -33 -90 -33h-18q-22 0 -54.5 14.5t-54.5 42.5q-8 10 -28.5 35.5t-34.5 44t-21 31.5q-8 11 -28 33.5t-25 29.5q-5 -6 -15 -22.5t-16 -24.5 q0 -1 -14.5 -12t-33 -22t-26.5 -11h-65q-13 0 -42.5 23.5t-37.5 35.5q-41 67 -49 191q-2 27 -2 176q-1 27 -4 71.5t-5.5 78t-2.5 36.5zM57 596q0 -3 3 -44.5t6.5 -99t5.5 -90.5q1 -12 -1 -51.5t3 -54.5q1 -5 8.5 -53t15.5 -80q58 80 110 80h3q5 0 16 3t15 3t34.5 -15.5 t34.5 -15.5t6 1t2 2v1l33 330v125l13 203v260q0 4 -2.5 14t-2.5 14q0 72 -24 99q-9 12 -31 12q-7 0 -18.5 -4t-26 -10.5t-18.5 -7.5q-46 -16 -81.5 -62.5t-52.5 -97t-18 -96.5q0 -5 -6 -17q-5 -52 -12 -137.5t-11 -146t-4 -64.5zM117 80q0 -8 24.5 -26.5t34.5 -20.5 q20 -4 35 -4q19 0 55 18q7 5 25 35.5t18 46.5q0 11 -28.5 28t-36.5 17q-19 0 -29 -2q-29 0 -43 -14q-55 -55 -55 -78z" />
<glyph unicode="R" horiz-adv-x="311" d="M8 14l25 635l4 549q0 -4 8 -3q4 1 6 1q17 0 49 2t33 2q30 0 46.5 -7.5t47.5 -31.5q3 -2 13 -17t14 -20q0 -2 -1 -4t-1.5 -3.5t0.5 -2.5q13 -16 22 -69.5t9 -92.5q0 -16 -7 -41q-1 -4 0 -17.5t0 -19.5q-6 -73 -36 -137q-17 -31 -59 -81.5t-68 -71.5q24 -14 44 -48.5 t23 -62.5q0 -3 5 -20.5t5 -24.5q1 -17 6 -66.5t5 -76.5q7 -196 8 -203q0 -13 7.5 -32t19.5 -19q7 0 13.5 8.5t14 21.5t12.5 19q17 -8 17 -19q0 -21 -15.5 -43t-37.5 -22q-33 0 -52.5 21.5t-19.5 54.5v86q0 3 -2 13t-2 15v99q0 77 -10 149q-1 3 -5.5 21t-5.5 26l-2 5l-4.5 9 l-6.5 13t-8 15t-9 14t-10 12t-10.5 8.5t-10.5 3.5h-19l-16 -502v-7v-6.5v-5t-0.5 -5t-1 -4t-1.5 -4.5t-2.5 -4.5l-3 -5t-4 -6t-5.5 -7.5q-1 1 -8.5 4t-12.5 6zM66 596q178 102 178 356q0 122 -39 185q-5 8 -32 20t-42 12q-23 0 -55 -12q-2 -11 -4 -35.5t-4 -34.5z" />
<glyph unicode="S" horiz-adv-x="323" d="M31 63v21q3 6 12 6q7 0 9 -2h1q14 -29 29 -41q7 -6 23 -13t22 -7q14 0 36 9t32 19q33 38 38 58q19 97 19 129q0 85 -17 174.5t-40 148.5q-10 26 -57 130t-58 147q-2 7 -9.5 24t-9.5 27q-10 62 -10 80l1 9q1 8 2 39t1 85q21 66 47.5 98.5t75.5 32.5q15 0 25.5 -3.5 t15 -7.5t14 -15t17.5 -19q12 -12 12 -21v-32q-2 0 -6 -2t-8 -2q-3 0 -13 17.5t-25.5 35.5t-33.5 18q-25 0 -44.5 -24.5t-28.5 -55.5t-13.5 -55.5t-3.5 -28.5q0 -2 -2 -5t-2 -7t3 -13t3 -13l-3 -26q-3 -27 1 -32q6 -25 16 -55t18.5 -52.5t23.5 -58t22.5 -52l25 -55 t21.5 -48.5q32 -73 45 -136q6 -27 12.5 -73t9.5 -78.5t3 -38.5v-88q0 -7 -2 -26.5t-7.5 -50.5t-13.5 -48q-10 -20 -51 -61q-4 -4 -13 -7t-19 -6t-13 -4q-14 -6 -39 -6q-66 0 -72 37q-22 13 -22 24z" />
<glyph unicode="T" horiz-adv-x="389" d="M35 1196v12q39 19 80 23q77 4 239 16l8 -8q0 -10 -8 -14q-30 -13 -45 -13q-51 0 -76 -2q-6 -11 -6 -67v-150l-20 -520q-1 -12 -3 -31.5t-5 -46t-4 -39.5q-1 -15 1.5 -47.5t2.5 -46.5q0 -3 -2.5 -12.5t-3.5 -13.5q-1 -26 -1 -100.5t-2 -115.5q0 -7 -2.5 -11.5t-7 -8.5 t-6.5 -6q-2 0 -4 2t-4.5 5.5t-3.5 4.5q-10 67 -10 88l36 680v115q0 3 4.5 19t4.5 20v278h-64q-5 0 -41.5 -9t-40.5 -9q-5 0 -11 4z" />
<glyph unicode="U" horiz-adv-x="358" d="M23 258l14 225v95q0 3 3 41.5t3 42.5v253q0 1 6 43q4 50 4 72v35q0 3 2 14t2 15v88q0 3 2 27.5t2 37.5l3 2q3 2 8 2q22 0 22 -37q0 -3 -2 -19t-2 -24q0 -7 1.5 -22.5t1.5 -28.5t-3 -24l-2 -7q-2 -7 -2 -10q0 -63 -4 -120t-5 -73t3 -63q1 -6 -0.5 -24t-1.5 -25 q-17 -417 -17 -450q0 -126 15 -181q1 -3 3.5 -18.5t6.5 -27.5t10 -21q2 -3 7 -7.5t12 -10.5t12 -11q23 -18 51 -18q4 0 9.5 -1t8 -0.5t10 5.5t19.5 16q17 13 21 57q16 109 16 134v84q0 4 -4 43t-4 43q0 18 4 147q16 211 18 293q1 18 3.5 120.5t7.5 157.5q1 7 1.5 43t2.5 58 q0 9 4 25t12 20h8q7 -7 8 -13t-2 -13t-2 -13q9 -36 9 -39l-21 -506q0 -2 -3.5 -37.5t-7 -81.5t-3.5 -73q0 -6 1 -23t1 -26v-21q-1 -34 1 -106q1 -24 1 -46q0 -72 -6 -126q-8 -72 -35 -117q-4 -8 -10.5 -11.5t-12.5 -5t-8 -2.5q-26 -20 -63 -20q-29 0 -63 27.5t-44 54.5 q-33 101 -33 165q0 9 1 17z" />
<glyph unicode="V" horiz-adv-x="430" d="M45 1214q1 2 1 5q2 5 1 6h23q9 0 14 -15q26 -169 29 -325q0 -2 5.5 -20t6.5 -29q1 -13 9.5 -75t10.5 -97q1 -9 1 -30.5t1 -33.5q0 -3 2.5 -27.5t6.5 -48.5q4 -36 4 -59v-13q-2 -24 -2 -30q1 -7 7.5 -27.5t8.5 -27.5q1 -8 1 -32.5t1 -35.5q1 -10 7 -31.5t7 -31.5q3 2 5 6 q49 348 79 532q11 69 26.5 143t38 172t32.5 142q1 4 18 12q4 -16 4 -22q0 -3 -14.5 -67t-32.5 -144t-24 -115q-10 -49 -38 -241t-44 -281q-1 -7 -6.5 -28t-6.5 -32q-2 -39 -9 -84t-12 -72t-5 -58.5t8 -57.5q0 -4 -3.5 -12.5t-8.5 -8.5q-4 0 -11 -3t-10 -3q-15 212 -55 580 q-10 88 -31 283q-2 21 -9.5 103t-15.5 136z" />
<glyph unicode="W" horiz-adv-x="821" d="M33 1237v14h20q13 -11 21 -30q16 -55 36 -180t25 -150q3 -14 3.5 -49t2.5 -47q1 -7 9 -35.5t10 -44.5q3 -16 5 -53.5t5 -53.5q0 -3 5 -21.5t5 -27.5q0 -4 -1 -13t-1 -17.5t2 -14.5q8 -37 10 -51q0 -1 -4 -19q15 -30 15 -41q4 -44 22.5 -147.5t18.5 -159.5q0 -2 4 -2 q4 11 8 29q7 43 25 149t28 162q2 10 17.5 70.5t21.5 85.5q16 62 31 174q0 5 6 9.5t12 4.5q11 0 15 -12q3 -23 13 -91t13 -106q2 -20 5 -67.5t5 -67.5q1 -12 12 -80q9 -58 9 -89v-11q0 -2 3.5 -7.5t4.5 -8.5q3 -18 5 -55t5 -56q4 0 7 -6q4 4 8 16q119 494 186 797 q55 254 72 315h18q4 -4 4 -16q0 -5 -28 -137q-3 -14 -14.5 -49.5t-14.5 -51.5q-2 -9 -22 -111.5t-31 -154.5q-5 -23 -22 -78.5t-25 -89.5q-2 -8 -5.5 -28t-5.5 -27q-28 -115 -65 -291q0 -2 -8.5 -44t-12.5 -69q0 -4 -2.5 -11t-6.5 -15.5t-5 -12.5q-4 -13 -4 -65 q-3 -7 -10.5 -12.5t-12.5 -5.5q-10 0 -15.5 7.5t-0.5 24.5l-82 629q-1 -4 -5 -15.5t-5 -15.5q-57 -262 -72 -362q-5 -36 -18 -113.5t-17 -101.5q-1 -5 -10 -15t-10 -14h-19q-9 24 -14.5 60.5t-10 84.5t-7.5 70q-27 174 -29 187q-19 182 -47 374q-6 36 -20 116t-23 136 q-1 8 -6.5 26.5t-7.5 26.5q-2 10 -5 36t-7 46.5t-9 38.5q-1 5 -6.5 16t-5.5 15z" />
<glyph unicode="X" horiz-adv-x="530" d="M35 10l227 690q-4 15 -9.5 31.5t-13 35t-10.5 28.5q-4 13 -16 54t-23 75t-22 61q-84 214 -84 217q0 15 20 15q10 0 15 -5q23 -75 63 -178q0 -1 -1 -4t-1 -4q2 -2 10 -9.5t9 -12.5q13 -36 40 -121.5t44 -130.5q2 2 4 7.5t2 6.5q37 101 98 278q9 29 29.5 99.5t29.5 99.5 q2 0 9 -2t12 -2v-14l-170 -518q8 -30 23.5 -86.5t19.5 -73.5q2 -10 14 -36.5t15 -35.5q19 -57 80 -225q2 -5 6 -49q17 -18 25 -39.5t13.5 -51.5t8.5 -40q2 -4 7 -15.5t9 -21.5t4 -13q0 -5 -10.5 -11.5t-15.5 -6.5q-6 0 -11.5 10t-9 21.5t-7 22.5t-3.5 12q-17 64 -31 104 q-5 15 -18.5 60.5t-22.5 68.5l-22.5 55.5t-18 50l-15 45t-24.5 76t-34 107.5q-8 -9 -13.5 -25t-11 -37t-8.5 -30q-45 -136 -68 -195q-2 -6 -7 -30.5t-11 -38.5q-33 -81 -66 -193q-2 -6 -8 -20.5t-8 -20.5q-1 -2 -3.5 -13.5t-7.5 -22t-14 -17.5q-4 0 -9.5 5t-8.5 13z" />
<glyph unicode="Y" horiz-adv-x="507" d="M45 1217v16l8 8q16 -5 19 -18q4 -10 13.5 -40.5t16.5 -45.5q6 -16 21.5 -51.5t21.5 -49.5q0 -4 -4 -8l121 -336q10 28 37 119q87 277 145 442q2 2 11 2q7 0 13.5 -7.5t6.5 -12.5q0 -3 -7.5 -17t-17.5 -32t-14 -27q-2 -6 -4 -25t-4 -26q-4 -14 -17.5 -45t-17.5 -49 q-8 -23 -25.5 -90.5t-21.5 -81.5q-3 -10 -19.5 -58t-26.5 -83t-15 -66q-1 -6 3.5 -19t4.5 -16q0 -2 -3.5 -8t-4.5 -10q-1 -12 -0.5 -19t3 -23t3.5 -24q0 -8 -3 -46t-3 -56q1 -14 1 -40t1 -46.5t4 -38.5q-2 -2 -3.5 -8t-2.5 -7q2 -44 2 -264q-13 0 -19 -4q-2 2 -5.5 7.5 t-4.5 6.5q2 70 2 234v145v18q1 18 1 38v44t-1 38q-1 35 -12 81.5t-22 77t-34.5 91t-31.5 81.5q0 1 1.5 7t0.5 8q-13 27 -41 129q-3 11 -13 38t-12 33q-6 16 -19 49t-22.5 57t-9.5 28z" />
<glyph unicode="Z" horiz-adv-x="464" d="M23 0q0 4 17.5 59t42 126.5t40.5 113.5q100 251 188 449q3 9 14 27t15 26q9 20 21 66.5t18 64.5q2 5 82 219q-3 10 -19 10l-221 -20q-1 0 -13 0.5t-24 0.5t-20 -1v26q29 2 77 7t83 9.5t38 4.5h150q0 -4 8 -12q-75 -121 -129 -312q-2 -6 -17.5 -43.5t-21.5 -56.5 q0 -1 -2 -4t-4.5 -7.5t-3.5 -7.5q-2 -2 -1.5 -11.5t-2.5 -14.5q-2 -4 -13 -21.5t-16 -27.5q-15 -36 -62.5 -148.5t-68.5 -163.5q-2 -5 -5.5 -21.5t-6.5 -25.5q-8 -23 -29.5 -76.5t-30.5 -82.5q-1 -4 -3 -15.5t-3 -15.5q-5 -17 -18.5 -51t-18.5 -52q40 -10 50 -10 q2 0 10.5 1.5t22 3.5t26.5 3q35 2 109 2q32 0 38 -20q-136 -16 -157 -16h-76h-6h-10h-12t-13 1t-11 3t-8 5.5t-3 8.5z" />
<glyph unicode="[" />
<glyph unicode="\" />
<glyph unicode="]" />
<glyph unicode="^" />
<glyph unicode="_" />
<glyph unicode="`" />
<glyph unicode="a" horiz-adv-x="573" d="M25 35q0 2 5 25.5t11.5 55t9.5 50.5q0 2 -0.5 7t-0.5 10.5t1 9.5q31 185 47 239q3 11 19.5 58t23.5 69q8 29 21.5 92.5t21.5 93.5q3 13 8.5 44.5t8.5 44.5q1 3 10.5 27t11.5 38q7 45 8 47q16 73 78 244h13q24 -22 32 -66q3 -15 9 -59.5t8 -58.5q5 -26 20.5 -93.5 t24.5 -113.5q4 -24 19 -99.5t24.5 -127t15.5 -99.5q5 -20 14 -41q2 -3 0.5 -16t-0.5 -17q11 -59 26 -152t25.5 -161t10.5 -72q0 -14 -8 -34q-5 0 -12 7t-7 11q-19 62 -34.5 199t-24.5 186q0 18 -10 31q-40 3 -101 12l-207 4q-15 0 -18 -10q-15 -47 -25 -111 q-31 -178 -49 -284q-1 0 -5 -2.5t-9 -2.5q-6 0 -11 4.5t-5 10.5zM141 471q0 -5 3 -7q1 -1 1 -3q15 -1 39.5 0t44 2.5t21.5 1.5q3 0 37.5 -2t82 -4.5t76.5 -3.5v24l-127 645q-3 -10 -27.5 -81.5t-31.5 -98.5q-8 -34 -19.5 -97.5t-17.5 -86.5q-4 -18 -19 -70t-20 -76 q-4 -20 -15 -54.5t-19.5 -60t-8.5 -28.5z" />
<glyph unicode="b" horiz-adv-x="364" d="M25 78v387l10 307q0 2 2 30.5t2 43.5q1 19 5 65t5 70q6 99 6 201q11 2 31 5.5t35 6t18 2.5q39 0 58 -12q14 -6 39 -39q1 -2 6.5 -7t7.5 -8q13 -19 14 -24q19 -50 29 -88q1 -3 -1 -10.5t-1 -10.5l5 -11q5 -10 5 -15v-105q0 -4 -6.5 -27.5t-7.5 -31.5q-11 -55 -49.5 -119.5 t-79.5 -95.5q6 -5 14 -7t10 -3q1 -1 5 -4t6 -5q31 0 74 -44.5t52 -84.5q5 -22 12 -67t7 -53q0 -101 -8 -136q-33 -148 -131 -180q-5 -2 -21.5 -10.5t-27.5 -11.5q-24 -4 -48 -4h-5h-5t-5 0.5t-5.5 1t-4.5 2t-5 3.5t-4 5t-4 7t-3 9q6 -1 13 -1.5t10.5 -1t8 -1t7.5 -0.5 q63 0 124 51t67 111q1 3 5.5 20t4.5 25q2 74 2 102q0 61 -24.5 127.5t-57.5 77.5q-3 1 -10 8.5t-10 10.5q-32 20 -66 20q-5 0 -20.5 -3t-30 -3t-25.5 6v-541q-8 -8 -12 -16q-18 12 -18 21q-4 32 -4 55zM59 578q62 14 111.5 70.5t72.5 117t23 106.5q0 24 -1 46.5t-7.5 72 t-18.5 84t-38 62.5t-62 28q-6 0 -29 -4.5t-30 -5.5q0 -12 1.5 -51.5t0.5 -54.5q-1 -42 -8 -108.5t-8 -92.5q-1 -27 -2.5 -84.5t-3 -105t-1.5 -80.5z" />
<glyph unicode="c" horiz-adv-x="448" d="M37 524q0 90 8 164q2 15 3 48t3 48q13 87 25 127q6 24 16 49.5t24.5 58t20.5 46.5q2 2 4.5 3.5t3.5 2.5q9 27 63 65t81 38h73q3 0 17 -7q26 -5 53 -35t27 -57q0 -8 -8 -16h-13l-6 12q-7 44 -41.5 63t-73.5 19q-53 0 -108.5 -52t-63.5 -104q-8 -8 -12 -16q-1 -5 -1 -16.5 t-1 -16.5q-9 -7 -16.5 -22.5t-10 -27.5t-7 -36.5t-5.5 -30.5t-6 -23.5t-6 -23.5q-2 -32 -7 -94t-8.5 -105t-3.5 -46q1 -31 5 -107q3 -53 3 -86q0 -15 -1 -27q0 -7 5.5 -27t6.5 -28q5 -38 37 -143q1 -2 7 -7t7 -8q15 -35 60 -63.5t81 -28.5q2 0 19 2t22 2q15 0 25 7 q2 2 15.5 12t21.5 14q4 -4 4 -12q0 -4 -13 -20t-24 -25q-46 -8 -78 -8q-109 0 -178 127q-5 9 -14.5 57.5t-16.5 69.5q-8 28 -11 52t-3 58.5v42.5q-4 66 -4 131z" />
<glyph unicode="d" horiz-adv-x="376" d="M22 102q0 14 0.5 27t0.5 14l14 613v454q2 1 6 2.5t7.5 3t6.5 1.5h21.5h27.5t28 -1.5t31.5 -4t28.5 -8t27.5 -13.5t20.5 -20t16 -27q1 -1 11 -10.5t12 -16.5q42 -92 53 -184q10 -112 10 -139q0 -3 -3 -43.5t-3 -44.5v-117q0 -90 -20 -196t-48 -177q-18 -47 -66.5 -110.5 t-88.5 -77.5l-18 -9t-25 -11.5t-15 -4.5q-8 0 -26 12q0 3 -2.5 13.5t-3.5 15.5q-2 11 -3 28q-1 11 -1 21q1 6 1 10zM51 365l4 -349q28 25 49 33q18 8 30.5 20t30 34.5t25.5 31.5q2 3 10.5 11.5t10.5 13.5q37 60 43 84q33 117 53 291l6 272q0 27 -20 139q0 23 -2 31 q-1 3 -7 29.5t-9.5 38t-12.5 36t-18 38.5t-23.5 31t-32.5 28q-21 12 -53 12q-39 0 -59 -10q-2 -99 -6 -232q-1 -53 -7 -266q-4 -122 -4 -182q0 -11 -3 -34.5t-3 -29.5q0 -9 1.5 -29t0.5 -28q-4 -8 -4 -14z" />
<glyph unicode="e" horiz-adv-x="335" d="M51 31q7 13 0 26l6 529q1 60 5.5 183t5.5 183v66q-2 14 0 58q1 19 1 36q0 22 -1 42q-2 34 -9 54l275 25l8 -8q-7 -11 -46.5 -22t-66.5 -11q-6 0 -14 8l-10 -10q-15 -2 -33 2l-8 -6q-4 4 -14 4q-60 0 -60 -12q2 -53 2 -160v-215q0 -10 -3 -35.5t-3 -28.5l2 -33 q2 -33 2 -55q0 -7 -1 -27t-1 -30q18 -2 60.5 4t56.5 6h63q4 0 4 -8q0 -11 -6.5 -17t-15.5 -6q-52 0 -111 -6q-4 -1 -19.5 -6.5t-19.5 -5.5q-5 0 -6 3q0 1 -2 1q-1 -9 -3 -43.5t-7 -54.5l4 -422q12 -4 29 -5.5t26.5 -1.5t34.5 1.5t29 1.5q6 0 21.5 1t25 1t23 -3t22.5 -9 q-8 -8 -8 -15q-35 -6 -67 -6h-23q-24 0 -52 1q-43 1 -59 1q-7 0 -20 7t-17 18z" />
<glyph unicode="f" horiz-adv-x="389" d="M31 162l14 162v79q0 2 3.5 69t7 146.5t3.5 110.5q1 33 1.5 140.5t2.5 164.5q1 14 -0.5 46t-1.5 44q0 31 -2 45q-4 8 7 25q143 0 223 2q36 6 45 6h20q2 -6 4 -8q-5 -15 -18 -18q-27 -8 -73 -12.5t-60 -4.5q-4 0 -13.5 2t-13.5 2q-47 0 -86 -8q-5 -3 -5.5 -17.5t1.5 -29 t0 -27.5l-14 -403q2 -8 1.5 -24.5t0.5 -28t4 -11.5q5 0 17 4t16 5q58 8 98 8q17 0 41 -8q2 -2 -1 -8.5t-7 -10.5q-18 -2 -62 -9t-67 -9q-25 0 -41 -2q0 -23 -3 -71t-3 -67q0 -46 -5 -131.5t-6 -121.5v-32q0 -27 1 -67q1 -65 1 -90q-4 0 -16 -6q-1 2 -5.5 9.5t-4.5 12.5 q0 20 -1 53.5t-2 60t-1 28.5z" />
<glyph unicode="g" horiz-adv-x="555" d="M23 557v150q0 3 4 22t4 27q2 21 14 80q14 72 23 90q1 3 12.5 20.5t15.5 28.5q22 59 93.5 121t123.5 86q12 5 31 13t23 9.5t14.5 4.5t18 3h22.5q37 0 88 -29t65 -71l-4 -25q-11 7 -28.5 33t-32.5 35q-20 14 -40 20.5t-32.5 7.5t-36.5 1q-3 0 -12.5 -4t-22.5 -9.5t-20 -7.5 q-67 -19 -141 -86q-15 -15 -43 -54.5t-45 -70.5q-19 -32 -25 -51q-8 -20 -12 -36.5t-5.5 -36t-2.5 -23.5q0 -3 -5.5 -17t-5.5 -22q-4 -48 -8 -72l4 -170q4 -149 48.5 -283.5t136.5 -187.5l10 -10q40 -18 51 -18q5 0 27.5 -3.5t27.5 -3.5q28 0 48.5 23t29 57t12 59.5 t3.5 43.5q0 2 -2.5 24t-5 47t-1.5 37q2 67 2 119t-2 88q-24 10 -94 10h-10q-10 -1 -34.5 -1.5t-59.5 -0.5l-2 6q-2 7 -2 13q24 5 63 5q20 0 43 -1q2 0 9 4t12 4q3 0 96 -6q7 -3 10 -10q1 -27 2 -77t2 -79l-4 -8v-20q0 -36 5 -87q7 -64 7 -71q0 -39 -10.5 -89t-17.5 -61 q-3 -3 -13 -16t-14 -17q-37 -28 -53 -28h-31q-2 0 -20 7t-25 7h-2q-32 0 -75 25q-46 26 -70 55q-45 51 -95 203q-6 18 -10 36.5t-6.5 30.5t-4.5 32t-3 27t-2.5 29.5t-1.5 26.5q-1 9 -3 31.5t-3.5 39.5t-1.5 21z" />
<glyph unicode="h" horiz-adv-x="411" d="M39 877q-1 9 1 58q1 29 1 51v24q0 13 -0.5 34.5t0.5 51.5t1 52.5t-1 37.5q-2 2 0.5 7.5t5.5 6.5h21q6 -25 6 -60.5t-6 -58.5q0 -8 4 -12v-119v-54v-110q2 -106 2 -139q6 -6 12 -6l213 21q7 0 25 -9q-1 -10 -10.5 -14.5t-25.5 -4.5l-16 -1q-87 -21 -110 -21h-82l-6 -6 q0 -12 3 -39.5t3 -42.5q2 -79 2 -140v-54v-39q0 -32 -1 -51.5t-2 -27.5l-1 -9v-109q0 -34 -6 -57q-1 -5 -15 -23q-12 12 -12 74v156l4 250zM319 1184q0 39 15 39q4 0 6 -1.5t4 -4.5l2 -3q0 -5 2 -19.5t2 -18.5v-95q0 -4 2 -25.5t2 -25.5v-436l15 -436q0 -1 -4 -32.5 t-3 -43.5q0 -4 3 -18.5t2 -20.5q-4 -9 -23 -43q-12 62 -12 117q0 29 0.5 77t1 84.5t0.5 38.5v103q0 236 -6 430v135v18q0 25 -2 59q-2 48 -4.5 84.5t-2.5 37.5z" />
<glyph unicode="i" horiz-adv-x="157" d="M29 23v129q0 4 5 93t5 93l20 573v254q10 15 21 15q7 0 10 -2t4.5 -9t3.5 -10l-30 -956v-140q0 -54 -13 -69h-12q0 1 -7 12.5t-7 16.5z" />
<glyph unicode="j" horiz-adv-x="329" d="M37 55v21q2 2 6 4t6 4q3 -1 21 -25q0 -3 22 -14.5t27 -11.5h18q12 0 33 16q30 22 39 78q5 31 8 80t5.5 114.5t4.5 98.5l15 198v87q0 4 3 41.5t3 41.5v99q0 2 3 32.5t3 45.5v41l-3 4q-3 3 -3 8q0 4 3 9.5t3 8.5q2 18 2 54q0 4 1 16t1 18v47q0 24 8 43h1q7 0 15 -9 q9 -10 9 -15v-105q0 -1 -5 -36.5t-5 -53.5v-166l-21 -335v-177q0 -17 -6 -55q-2 -14 -5 -45t-5.5 -50t-9 -46t-15.5 -49q-10 -26 -39.5 -45t-58.5 -19q-14 0 -30.5 2.5t-35 14t-18.5 30.5z" />
<glyph unicode="k" horiz-adv-x="464" d="M49 0v55l21 297v142q0 1 3 31.5t3 47.5q1 38 0 63t-2.5 35t-1.5 11q0 4 4 46t4 46v113v19q0 18 -0.5 44t-0.5 62v70t0.5 69.5t0.5 60.5q0 4 2 9t4.5 10.5t3.5 7.5q12 -4 16 -15t4 -37.5t1 -35.5q0 -2 -2.5 -4t-2.5 -4q9 -137 11 -207q0 -9 -1 -28.5t-3 -61t-4 -92.5 q0 -11 0.5 -34.5t0.5 -44t-1 -38.5q1 -1 1.5 -4.5t2.5 -5.5l303 633q14 -7 30 -7v-22q0 -4 -7 -6t-9 -6q-10 -20 -42.5 -84.5t-50 -100t-42 -88t-39.5 -92.5t-23 -70l-12 -12q-40 -85 -86 -188q6 -6 10 -6t8 2t9 2q24 0 46 -32t25 -34q3 -18 3 -33q1 -4 6 -12t6 -12 q13 -67 18 -201q2 -1 3.5 -6t2.5 -6q0 -5 -1.5 -20t-0.5 -23q1 -5 4.5 -14t5.5 -17t3 -14q2 -20 9 -59.5t9 -51.5q4 -21 28 -30t42 -7v-16q-20 -8 -33 -8q-17 0 -41 17t-27 30q-6 21 -9.5 46t-5 42t-4 51t-3.5 51q-1 9 -6.5 34.5t-5.5 29.5v92q0 10 -11 10q0 28 -21 97 t-52 69q-5 0 -22 -13.5t-21 -21.5q-5 -9 -5 -88q0 -24 -3 -74t-3 -75q0 -8 -4.5 -27t-5.5 -27q-2 -12 -2 -53q0 -21 -4 -71.5t-4 -61.5q0 -2 2.5 -12t1.5 -15q-6 -12 -10 -16h-23z" />
<glyph unicode="l" horiz-adv-x="335" d="M29 117l45 778q0 4 -4 54.5t-4 54.5v131q0 34 -11 71q4 13 19 13q7 0 22 -15q2 -7 2 -16t-1 -20t-1 -17t2 -34t2 -42q0 -7 2 -28t2 -31q3 -46 3 -81q0 -29 -2 -51q-5 -48 -5 -57v-112q0 -4 -3 -4q-3 -1 -3 -6v-87q0 -2 -4 -33.5t-8.5 -70t-5.5 -55.5q-2 -8 -2 -37v-105 q0 -3 -5.5 -21t-5.5 -28q-4 -82 -4 -127q0 -1 1.5 -21t2.5 -43.5t0 -37.5q10 -10 21 -10l199 24q15 0 24 -12q0 -1 -4.5 -5.5t-5.5 -6.5q-8 0 -30.5 -6t-33.5 -7q-8 -1 -28 -3t-27 -3q-61 -12 -127 -12q-6 0 -12 4.5t-6 9.5q-4 35 -4 105z" />
<glyph unicode="m" horiz-adv-x="577" d="M45 90l33 860v211q0 4 -2 16.5t-2 16.5q0 5 7 11.5t13 6.5t14 -5t9 -11q14 -39 35 -125q7 -30 28.5 -101t30.5 -110q18 -73 25 -102q2 -9 9 -49t16.5 -75.5t23.5 -62.5q4 -2 6 2q26 84 73.5 241.5t63.5 209.5q37 121 55 162q16 49 31 49q8 0 23 -10q8 -126 8 -191 q0 -3 -4.5 -22t-5.5 -27q6 -19 6 -162v-80l-15 -305v-135q0 -19 -4 -65q-5 -105 -12 -175q0 -4 2 -15.5t2 -16.5q0 -4 -1.5 -8t-3.5 -8.5t-3 -6.5h-23q-8 12 -8 25q0 4 7 93.5t7 94.5v103q0 3 2 31.5t4 67t3 60.5q4 104 8 316q0 4 2 51.5t2 103.5v127q-1 6 -3 27t-3 27 q-7 -8 -12 -22t-10.5 -35.5t-8.5 -30.5q-39 -108 -100 -312q-14 -45 -56 -200q-3 -21 -18 -50h-20q-27 71 -76.5 287t-91.5 336l-5 -10q-2 -22 -2 -44t2 -44q0 -7 -3.5 -25t-4.5 -24q-1 -13 2.5 -40t3.5 -40q0 -16 -12 -52q-1 -6 2.5 -16.5t3.5 -13.5v-144q-10 -10 -10 -20 q0 -12 3 -42t3 -44q-10 -155 -10 -162q0 -12 3 -38t3 -27v-297q-2 -1 -9.5 -8t-12.5 -7q-14 0 -19 19.5t-3 37t-1 23.5z" />
<glyph unicode="n" horiz-adv-x="464" d="M37 49q0 4 1 15t2.5 26.5t2.5 24.5q0 3 -1.5 32.5t-0.5 45.5q1 24 7.5 78t6.5 81q6 300 6 305v543q13 17 21 17q6 0 13 -7.5t9 -15.5q29 -119 64 -240q1 -3 0.5 -14t1.5 -16q12 -52 38.5 -149t33.5 -124q2 -7 5 -27t5 -28q11 -39 36.5 -114.5t37.5 -114.5q1 -4 3 -17.5 t3 -17.5q36 -106 39 -127q0 -5 6.5 -17t7.5 -14q4 4 4 12l-6 924q4 21 4 50q0 19 -2 42q-6 12 -6 15q0 6 7 11t13 5q15 0 17 -28q1 -10 1 -22q-1 -22 -3 -51q-4 -45 -4 -49v-56q0 -127 4 -128q2 -1 2 -27q0 -38 -2 -114.5t-2 -108.5q0 -7 3.5 -25t4.5 -26q1 -14 1 -33 q0 -36 -3 -88q0 -4 -2 -15.5t-2 -15.5q0 -3 1.5 -22.5t3.5 -45t3 -40.5q0 -13 0.5 -37t0 -59.5t-0.5 -60.5v-40q1 -17 4 -51.5t5.5 -62.5t2.5 -31q0 -14 -14 -19h-17q-4 14 -15 42.5t-15 41.5q-3 11 -8.5 38.5t-8.5 37.5q0 4 -2.5 11.5t-6.5 16.5t-5 13q-38 143 -76 260 q-9 26 -23 93.5t-20 91.5q-56 188 -67 237q-3 12 -13 62t-20 86.5t-23 64.5q-9 -78 -9 -166q0 -24 1 -49q1 -19 2 -49.5t2 -70t2 -60.5q1 -7 0 -17t-3 -23t-3 -20q0 -7 1 -28t0.5 -37t-3.5 -31q-5 -34 -8 -45q2 -2 6 -10q-1 -14 0.5 -48.5t1.5 -45.5q0 -1 -2 -7t-2 -10 q0 -6 1 -20.5t1 -20.5q0 -8 -5 -27.5t-5 -21.5v-121q0 -48 -4 -110q0 -4 -3.5 -12.5t-7.5 -8.5h-12q-14 23 -14 35zM385 162h6v8h-6v-8z" />
<glyph unicode="o" horiz-adv-x="483" d="M41 573q0 2 5.5 21.5t4.5 30.5q-1 20 -1 40q0 121 40 275q20 73 57 129q5 8 16 28t24 38t30 32q7 7 23 19q72 24 84 24q18 0 39.5 -15t25.5 -24q27 -51 35 -100q6 -29 10 -61q8 -45 8 -144v-231q0 -4 -6 -78t-6 -78v-88q0 -12 -19 -115.5t-28 -136.5q-1 -4 -6.5 -18 t-7.5 -21q-20 -59 -76 -88q-16 -10 -47 -21t-39 -11q-15 0 -28 4t-23.5 10t-20.5 17.5t-17 20.5t-14 25t-11 25.5t-9.5 27.5t-8 26.5t-7 26t-5.5 21.5t-0.5 21.5t-1.5 27.5q-11 61 -11 130q0 20 1 40q0 12 -3 40t-3 42q-1 31 -2 51t-1.5 27.5t-0.5 9.5zM80 461q0 -4 1 -6 t2.5 -2.5t2.5 -1.5q0 -3 1.5 -25t0.5 -31q-2 -6 -2 -26q0 -17 2 -45q2 -60 2 -74l6 -6q2 -14 4 -44t4 -42q3 -10 10.5 -31t21 -50t33 -50t38.5 -21q6 0 46.5 19t47.5 24q7 6 27 39q14 30 25 67t17.5 64t12 71.5t7.5 62t5.5 65t3.5 53.5q1 19 3 43.5t4 41.5t2 19v345 q0 17 -6 72t-25.5 121.5t-46.5 66.5q-8 0 -33.5 -7.5t-38.5 -15.5q-18 -10 -39 -31q-31 -34 -59 -92q-31 -71 -45 -125q-7 -31 -27 -170q-1 -7 0 -23.5t0 -21.5q-2 -12 -2 -33t2 -51q-1 -1 -2 -1q-2 0 -2 -5v-86q0 -2 1.5 -20t0.5 -25l-3 -3q-3 -4 -3 -9z" />
<glyph unicode="p" horiz-adv-x="323" d="M20 -14l17 839q0 23 -5 72t-5 74l-2 231q24 15 65 15q57 0 98 -15q29 -10 37 -28q68 -129 68 -248q0 -47 -4 -70q-9 -73 -45 -170q-25 -62 -113 -135q-15 -14 -70 -23q-6 -5 -7.5 -14t0 -24t1.5 -19q0 -16 1 -51t1 -37v-98q0 -3 -3 -17t-3 -22v-176q0 -3 1 -15t0.5 -21 t-3.5 -16q-1 -4 -8.5 -15.5t-7.5 -16.5h-13zM55 1028q0 -2 2 -27.5t4 -57.5t2 -52q0 -5 -2.5 -26.5t0.5 -22.5l-2 -285q6 2 21 4t18 4q118 70 152 258q8 58 8 99q0 67 -18.5 136.5t-53.5 108.5q-6 6 -25.5 10.5t-27.5 4.5h-63q-13 -4 -13 -35q0 -44 -0.5 -71.5t-1 -37 t-0.5 -10.5z" />
<glyph unicode="q" horiz-adv-x="436" d="M23 614q0 45 1.5 57t14.5 91q2 8 2 33q4 91 12 158.5t34.5 143t70.5 109.5q5 3 18 16t21 17q4 1 53 18q12 11 16 13q20 8 39 8q5 0 6 -2.5t2 -3.5q10 2 29 -7t25 -20q19 -34 29 -87q7 -44 7 -81v-16l-20 -594q0 -19 -10 -121q-3 -29 -10 -77t-13 -83.5t-6 -38.5 q0 -8 32 -46.5t34 -41.5q21 -40 55.5 -84.5t69.5 -68.5q21 -15 75 -15q2 0 9.5 -0.5t11 0t10.5 2.5t16 6.5t21 12.5h12v-16q-41 -33 -90 -33h-18q-22 0 -54.5 14.5t-54.5 42.5q-8 10 -28.5 35.5t-34.5 44t-21 31.5q-8 11 -28 33.5t-25 29.5q-5 -6 -15 -22.5t-16 -24.5 q0 -1 -14.5 -12t-33 -22t-26.5 -11h-65q-13 0 -42.5 23.5t-37.5 35.5q-41 67 -49 191q-2 27 -2 176q-1 27 -4 71.5t-5.5 78t-2.5 36.5zM57 596q0 -3 3 -44.5t6.5 -99t5.5 -90.5q1 -12 -1 -51.5t3 -54.5q1 -5 8.5 -53t15.5 -80q58 80 110 80h3q5 0 16 3t15 3t34.5 -15.5 t34.5 -15.5t6 1t2 2v1l33 330v125l13 203v260q0 4 -2.5 14t-2.5 14q0 72 -24 99q-9 12 -31 12q-7 0 -18.5 -4t-26 -10.5t-18.5 -7.5q-46 -16 -81.5 -62.5t-52.5 -97t-18 -96.5q0 -5 -6 -17q-5 -52 -12 -137.5t-11 -146t-4 -64.5zM117 80q0 -8 24.5 -26.5t34.5 -20.5 q20 -4 35 -4q19 0 55 18q7 5 25 35.5t18 46.5q0 11 -28.5 28t-36.5 17q-19 0 -29 -2q-29 0 -43 -14q-55 -55 -55 -78z" />
<glyph unicode="r" horiz-adv-x="311" d="M8 14l25 635l4 549q0 -4 8 -3q4 1 6 1q17 0 49 2t33 2q30 0 46.5 -7.5t47.5 -31.5q3 -2 13 -17t14 -20q0 -2 -1 -4t-1.5 -3.5t0.5 -2.5q13 -16 22 -69.5t9 -92.5q0 -16 -7 -41q-1 -4 0 -17.5t0 -19.5q-6 -73 -36 -137q-17 -31 -59 -81.5t-68 -71.5q24 -14 44 -48.5 t23 -62.5q0 -3 5 -20.5t5 -24.5q1 -17 6 -66.5t5 -76.5q7 -196 8 -203q0 -13 7.5 -32t19.5 -19q7 0 13.5 8.5t14 21.5t12.5 19q17 -8 17 -19q0 -21 -15.5 -43t-37.5 -22q-33 0 -52.5 21.5t-19.5 54.5v86q0 3 -2 13t-2 15v99q0 77 -10 149q-1 3 -5.5 21t-5.5 26l-2 5l-4.5 9 l-6.5 13t-8 15t-9 14t-10 12t-10.5 8.5t-10.5 3.5h-19l-16 -502v-7v-6.5v-5t-0.5 -5t-1 -4t-1.5 -4.5t-2.5 -4.5l-3 -5t-4 -6t-5.5 -7.5q-1 1 -8.5 4t-12.5 6zM66 596q178 102 178 356q0 122 -39 185q-5 8 -32 20t-42 12q-23 0 -55 -12q-2 -11 -4 -35.5t-4 -34.5z" />
<glyph unicode="s" horiz-adv-x="323" d="M31 63v21q3 6 12 6q7 0 9 -2h1q14 -29 29 -41q7 -6 23 -13t22 -7q14 0 36 9t32 19q33 38 38 58q19 97 19 129q0 85 -17 174.5t-40 148.5q-10 26 -57 130t-58 147q-2 7 -9.5 24t-9.5 27q-10 62 -10 80l1 9q1 8 2 39t1 85q21 66 47.5 98.5t75.5 32.5q15 0 25.5 -3.5 t15 -7.5t14 -15t17.5 -19q12 -12 12 -21v-32q-2 0 -6 -2t-8 -2q-3 0 -13 17.5t-25.5 35.5t-33.5 18q-25 0 -44.5 -24.5t-28.5 -55.5t-13.5 -55.5t-3.5 -28.5q0 -2 -2 -5t-2 -7t3 -13t3 -13l-3 -26q-3 -27 1 -32q6 -25 16 -55t18.5 -52.5t23.5 -58t22.5 -52l25 -55 t21.5 -48.5q32 -73 45 -136q6 -27 12.5 -73t9.5 -78.5t3 -38.5v-88q0 -7 -2 -26.5t-7.5 -50.5t-13.5 -48q-10 -20 -51 -61q-4 -4 -13 -7t-19 -6t-13 -4q-14 -6 -39 -6q-66 0 -72 37q-22 13 -22 24z" />
<glyph unicode="t" horiz-adv-x="389" d="M35 1196v12q39 19 80 23q77 4 239 16l8 -8q0 -10 -8 -14q-30 -13 -45 -13q-51 0 -76 -2q-6 -11 -6 -67v-150l-20 -520q-1 -12 -3 -31.5t-5 -46t-4 -39.5q-1 -15 1.5 -47.5t2.5 -46.5q0 -3 -2.5 -12.5t-3.5 -13.5q-1 -26 -1 -100.5t-2 -115.5q0 -7 -2.5 -11.5t-7 -8.5 t-6.5 -6q-2 0 -4 2t-4.5 5.5t-3.5 4.5q-10 67 -10 88l36 680v115q0 3 4.5 19t4.5 20v278h-64q-5 0 -41.5 -9t-40.5 -9q-5 0 -11 4z" />
<glyph unicode="u" horiz-adv-x="358" d="M23 258l14 225v95q0 3 3 41.5t3 42.5v253q0 1 6 43q4 50 4 72v35q0 3 2 14t2 15v88q0 3 2 27.5t2 37.5l3 2q3 2 8 2q22 0 22 -37q0 -3 -2 -19t-2 -24q0 -7 1.5 -22.5t1.5 -28.5t-3 -24l-2 -7q-2 -7 -2 -10q0 -63 -4 -120t-5 -73t3 -63q1 -6 -0.5 -24t-1.5 -25 q-17 -417 -17 -450q0 -126 15 -181q1 -3 3.5 -18.5t6.5 -27.5t10 -21q2 -3 7 -7.5t12 -10.5t12 -11q23 -18 51 -18q4 0 9.5 -1t8 -0.5t10 5.5t19.5 16q17 13 21 57q16 109 16 134v84q0 4 -4 43t-4 43q0 18 4 147q16 211 18 293q1 18 3.5 120.5t7.5 157.5q1 7 1.5 43t2.5 58 q0 9 4 25t12 20h8q7 -7 8 -13t-2 -13t-2 -13q9 -36 9 -39l-21 -506q0 -2 -3.5 -37.5t-7 -81.5t-3.5 -73q0 -6 1 -23t1 -26v-21q-1 -34 1 -106q1 -24 1 -46q0 -72 -6 -126q-8 -72 -35 -117q-4 -8 -10.5 -11.5t-12.5 -5t-8 -2.5q-26 -20 -63 -20q-29 0 -63 27.5t-44 54.5 q-33 101 -33 165q0 9 1 17z" />
<glyph unicode="v" horiz-adv-x="430" d="M45 1214q1 2 1 5q2 5 1 6h23q9 0 14 -15q26 -169 29 -325q0 -2 5.5 -20t6.5 -29q1 -13 9.5 -75t10.5 -97q1 -9 1 -30.5t1 -33.5q0 -3 2.5 -27.5t6.5 -48.5q4 -36 4 -59v-13q-2 -24 -2 -30q1 -7 7.5 -27.5t8.5 -27.5q1 -8 1 -32.5t1 -35.5q1 -10 7 -31.5t7 -31.5q3 2 5 6 q49 348 79 532q11 69 26.5 143t38 172t32.5 142q1 4 18 12q4 -16 4 -22q0 -3 -14.5 -67t-32.5 -144t-24 -115q-10 -49 -38 -241t-44 -281q-1 -7 -6.5 -28t-6.5 -32q-2 -39 -9 -84t-12 -72t-5 -58.5t8 -57.5q0 -4 -3.5 -12.5t-8.5 -8.5q-4 0 -11 -3t-10 -3q-15 212 -55 580 q-10 88 -31 283q-2 21 -9.5 103t-15.5 136z" />
<glyph unicode="w" horiz-adv-x="821" d="M33 1237v14h20q13 -11 21 -30q16 -55 36 -180t25 -150q3 -14 3.5 -49t2.5 -47q1 -7 9 -35.5t10 -44.5q3 -16 5 -53.5t5 -53.5q0 -3 5 -21.5t5 -27.5q0 -4 -1 -13t-1 -17.5t2 -14.5q8 -37 10 -51q0 -1 -4 -19q15 -30 15 -41q4 -44 22.5 -147.5t18.5 -159.5q0 -2 4 -2 q4 11 8 29q7 43 25 149t28 162q2 10 17.5 70.5t21.5 85.5q16 62 31 174q0 5 6 9.5t12 4.5q11 0 15 -12q3 -23 13 -91t13 -106q2 -20 5 -67.5t5 -67.5q1 -12 12 -80q9 -58 9 -89v-11q0 -2 3.5 -7.5t4.5 -8.5q3 -18 5 -55t5 -56q4 0 7 -6q4 4 8 16q119 494 186 797 q55 254 72 315h18q4 -4 4 -16q0 -5 -28 -137q-3 -14 -14.5 -49.5t-14.5 -51.5q-2 -9 -22 -111.5t-31 -154.5q-5 -23 -22 -78.5t-25 -89.5q-2 -8 -5.5 -28t-5.5 -27q-28 -115 -65 -291q0 -2 -8.5 -44t-12.5 -69q0 -4 -2.5 -11t-6.5 -15.5t-5 -12.5q-4 -13 -4 -65 q-3 -7 -10.5 -12.5t-12.5 -5.5q-10 0 -15.5 7.5t-0.5 24.5l-82 629q-1 -4 -5 -15.5t-5 -15.5q-57 -262 -72 -362q-5 -36 -18 -113.5t-17 -101.5q-1 -5 -10 -15t-10 -14h-19q-9 24 -14.5 60.5t-10 84.5t-7.5 70q-27 174 -29 187q-19 182 -47 374q-6 36 -20 116t-23 136 q-1 8 -6.5 26.5t-7.5 26.5q-2 10 -5 36t-7 46.5t-9 38.5q-1 5 -6.5 16t-5.5 15z" />
<glyph unicode="x" horiz-adv-x="530" d="M35 10l227 690q-4 15 -9.5 31.5t-13 35t-10.5 28.5q-4 13 -16 54t-23 75t-22 61q-84 214 -84 217q0 15 20 15q10 0 15 -5q23 -75 63 -178q0 -1 -1 -4t-1 -4q2 -2 10 -9.5t9 -12.5q13 -36 40 -121.5t44 -130.5q2 2 4 7.5t2 6.5q37 101 98 278q9 29 29.5 99.5t29.5 99.5 q2 0 9 -2t12 -2v-14l-170 -518q8 -30 23.5 -86.5t19.5 -73.5q2 -10 14 -36.5t15 -35.5q19 -57 80 -225q2 -5 6 -49q17 -18 25 -39.5t13.5 -51.5t8.5 -40q2 -4 7 -15.5t9 -21.5t4 -13q0 -5 -10.5 -11.5t-15.5 -6.5q-6 0 -11.5 10t-9 21.5t-7 22.5t-3.5 12q-17 64 -31 104 q-5 15 -18.5 60.5t-22.5 68.5l-22.5 55.5t-18 50l-15 45t-24.5 76t-34 107.5q-8 -9 -13.5 -25t-11 -37t-8.5 -30q-45 -136 -68 -195q-2 -6 -7 -30.5t-11 -38.5q-33 -81 -66 -193q-2 -6 -8 -20.5t-8 -20.5q-1 -2 -3.5 -13.5t-7.5 -22t-14 -17.5q-4 0 -9.5 5t-8.5 13z" />
<glyph unicode="y" horiz-adv-x="507" d="M45 1217v16l8 8q16 -5 19 -18q4 -10 13.5 -40.5t16.5 -45.5q6 -16 21.5 -51.5t21.5 -49.5q0 -4 -4 -8l121 -336q10 28 37 119q87 277 145 442q2 2 11 2q7 0 13.5 -7.5t6.5 -12.5q0 -3 -7.5 -17t-17.5 -32t-14 -27q-2 -6 -4 -25t-4 -26q-4 -14 -17.5 -45t-17.5 -49 q-8 -23 -25.5 -90.5t-21.5 -81.5q-3 -10 -19.5 -58t-26.5 -83t-15 -66q-1 -6 3.5 -19t4.5 -16q0 -2 -3.5 -8t-4.5 -10q-1 -12 -0.5 -19t3 -23t3.5 -24q0 -8 -3 -46t-3 -56q1 -14 1 -40t1 -46.5t4 -38.5q-2 -2 -3.5 -8t-2.5 -7q2 -44 2 -264q-13 0 -19 -4q-2 2 -5.5 7.5 t-4.5 6.5q2 70 2 234v145v18q1 18 1 38v44t-1 38q-1 35 -12 81.5t-22 77t-34.5 91t-31.5 81.5q0 1 1.5 7t0.5 8q-13 27 -41 129q-3 11 -13 38t-12 33q-6 16 -19 49t-22.5 57t-9.5 28z" />
<glyph unicode="z" horiz-adv-x="464" d="M23 0q0 4 17.5 59t42 126.5t40.5 113.5q100 251 188 449q3 9 14 27t15 26q9 20 21 66.5t18 64.5q2 5 82 219q-3 10 -19 10l-221 -20q-1 0 -13 0.5t-24 0.5t-20 -1v26q29 2 77 7t83 9.5t38 4.5h150q0 -4 8 -12q-75 -121 -129 -312q-2 -6 -17.5 -43.5t-21.5 -56.5 q0 -1 -2 -4t-4.5 -7.5t-3.5 -7.5q-2 -2 -1.5 -11.5t-2.5 -14.5q-2 -4 -13 -21.5t-16 -27.5q-15 -36 -62.5 -148.5t-68.5 -163.5q-2 -5 -5.5 -21.5t-6.5 -25.5q-8 -23 -29.5 -76.5t-30.5 -82.5q-1 -4 -3 -15.5t-3 -15.5q-5 -17 -18.5 -51t-18.5 -52q40 -10 50 -10 q2 0 10.5 1.5t22 3.5t26.5 3q35 2 109 2q32 0 38 -20q-136 -16 -157 -16h-76h-6h-10h-12t-13 1t-11 3t-8 5.5t-3 8.5z" />
<glyph unicode="&#x2000;" horiz-adv-x="682" />
<glyph unicode="&#x2001;" horiz-adv-x="1365" />
<glyph unicode="&#x2002;" horiz-adv-x="682" />
<glyph unicode="&#x2003;" horiz-adv-x="1365" />
<glyph unicode="&#x2004;" horiz-adv-x="455" />
<glyph unicode="&#x2005;" horiz-adv-x="341" />
<glyph unicode="&#x2006;" horiz-adv-x="227" />
<glyph unicode="&#x2007;" horiz-adv-x="227" />
<glyph unicode="&#x2008;" horiz-adv-x="170" />
<glyph unicode="&#x2009;" horiz-adv-x="273" />
<glyph unicode="&#x200a;" horiz-adv-x="75" />
<glyph unicode="&#x202f;" horiz-adv-x="273" />
<glyph unicode="&#x205f;" horiz-adv-x="341" />
<glyph unicode="&#x25fc;" horiz-adv-x="1239" d="M0 0v1239h1239v-1239h-1239z" />
</font>
</defs>
</svg>
